<svg width="33" height="32" viewBox="0 0 33 32" fill="none" xmlns="http://www.w3.org/2000/svg">
<path d="M16.5 28C23.1274 28 28.5 22.6274 28.5 16C28.5 9.37258 23.1274 4 16.5 4C9.87258 4 4.5 9.37258 4.5 16C4.5 22.6274 9.87258 28 16.5 28Z" stroke="black" stroke-width="2" stroke-linecap="round" stroke-linejoin="round"/>
<path d="M27.2706 21.2966L20.4848 17.123C20.3659 17.0499 20.2329 17.0024 20.0945 16.9838L17.2422 16.5993C17.028 16.5704 16.8102 16.6117 16.6215 16.717C16.4327 16.8223 16.2832 16.9859 16.1952 17.1833L14.4828 21.0256C14.4032 21.2042 14.3777 21.4024 14.4096 21.5954C14.4414 21.7884 14.5292 21.9678 14.662 22.1115L17.012 24.6533C17.1185 24.7685 17.1964 24.9072 17.2394 25.0582C17.2824 25.2091 17.2893 25.368 17.2595 25.5221L16.7808 27.9966" stroke="black" stroke-width="2" stroke-linecap="round" stroke-linejoin="round"/>
<path d="M8.61912 6.95068L7.50109 9.5944C7.40141 9.83012 7.39589 10.0951 7.48569 10.3348L8.92205 14.1683C8.98087 14.3253 9.07821 14.4649 9.20512 14.5745C9.33204 14.684 9.48445 14.7599 9.64835 14.7951L12.3271 15.3708C12.4757 15.4028 12.6151 15.4682 12.7347 15.5621C12.8542 15.656 12.9508 15.776 13.0171 15.9128L13.4928 16.8956C13.5746 17.0647 13.7025 17.2073 13.8617 17.3071C14.0209 17.4069 14.205 17.4599 14.3928 17.4599H16.0719" stroke="black" stroke-width="2" stroke-linecap="round" stroke-linejoin="round"/>
<path d="M19.5573 4.39355L20.724 6.48335C20.8343 6.68091 20.8744 6.91003 20.8376 7.13329C20.8009 7.35654 20.6895 7.56073 20.5217 7.7125L17.1578 10.7547C17.1007 10.8063 17.0378 10.8512 16.9705 10.8884L15.4402 11.7334C15.2922 11.8152 15.1259 11.8581 14.9568 11.8581H12.2886C12.0919 11.8581 11.8995 11.9161 11.7356 12.0249C11.5716 12.1338 11.4435 12.2885 11.3671 12.4699L10.3262 14.9409" stroke="black" stroke-width="2" stroke-linecap="round" stroke-linejoin="round"/>
</svg>
